<svg width="500" height="500" viewBox="0 0 500 500" fill="none" xmlns="http://www.w3.org/2000/svg">
<rect width="500" height="500" rx="100" fill="#0A0A0E"/>
<path d="M400.14 118C419.28 118 431.243 138.721 421.673 155.297L313.643 342.41C309.177 350.145 300.924 354.91 291.992 354.91H273.117C264.186 354.91 255.933 350.145 251.467 342.41L193.871 242.652C182.176 222.397 151.552 227.86 147.583 250.91L128.439 362.09C126.374 374.084 115.972 382.848 103.802 382.848H99.0068C83.504 382.848 71.7384 368.883 74.3691 353.605L113.948 123.748C114.447 120.853 116.617 118.664 119.297 118.001H164.947C173.857 118.021 182.085 122.781 186.542 130.5L260.904 259.3C270.527 275.966 294.583 275.966 304.205 259.3L378.606 130.433C383.048 122.74 391.257 118 400.14 118ZM279.962 118.001C300.02 118.001 316.28 134.262 316.28 154.32C316.28 174.379 300.02 190.639 279.962 190.639C259.904 190.639 243.644 174.378 243.644 154.32C243.644 134.262 259.904 118.001 279.962 118.001Z" fill="white"/>
</svg>
