<svg width="500" height="500" viewBox="0 0 500 500" fill="none" xmlns="http://www.w3.org/2000/svg">
<rect width="500" height="500" rx="90" fill="#DA5C2C"/>
<path d="M169.937 152.984C169.937 160.379 175.931 166.374 183.326 166.374C191.058 166.374 197.326 172.642 197.326 180.374V318.792C197.326 326.524 191.058 332.792 183.326 332.792C175.536 332.792 169.222 339.107 169.222 346.896V364.098C169.222 364.65 168.774 365.098 168.222 365.098C167.669 365.098 167.222 364.65 167.222 364.098V345.123C167.222 338.313 161.701 332.792 154.891 332.792C147.159 332.792 140.891 326.524 140.891 318.792V180.374C140.891 172.642 147.159 166.374 154.891 166.374C162.096 166.374 167.937 160.533 167.937 153.328V135.653C167.937 135.101 168.384 134.653 168.937 134.653C169.489 134.653 169.937 135.101 169.937 135.653V152.984Z" fill="white"/>
<path d="M89.0518 183.769C89.0518 189.597 93.7759 194.321 99.6035 194.321H102.436C110.167 194.321 116.435 200.589 116.436 208.321V291.041C116.435 298.773 110.167 305.041 102.436 305.041H99.0796C93.1444 305.041 88.333 309.852 88.333 315.787V325.534C88.333 326.086 87.8853 326.534 87.333 326.534C86.7807 326.534 86.333 326.086 86.333 325.534V315.787C86.333 309.852 81.5216 305.041 75.5864 305.041H74C66.2681 305.041 60.0001 298.773 60 291.041V208.321C60.0001 200.589 66.2681 194.321 74 194.321H76.5C82.3276 194.321 87.0518 189.597 87.0518 183.769V174.218C87.0518 173.665 87.4995 173.218 88.0518 173.218C88.604 173.218 89.0518 173.665 89.0518 174.218V183.769Z" fill="white"/>
<path d="M331.718 152.981C331.718 160.379 337.714 166.375 345.111 166.375C352.843 166.375 359.111 172.643 359.111 180.375V318.793C359.111 326.525 352.843 332.793 345.111 332.793C337.321 332.793 331.005 339.109 331.005 346.899V364.099C331.005 364.651 330.557 365.099 330.005 365.099C329.453 365.099 329.005 364.651 329.005 364.099V345.122C329.005 338.313 323.485 332.793 316.676 332.793C308.944 332.793 302.676 326.525 302.676 318.793V180.375C302.676 172.643 308.944 166.375 316.676 166.375C323.879 166.375 329.718 160.536 329.718 153.333V135.654C329.718 135.102 330.165 134.654 330.718 134.654C331.27 134.654 331.718 135.102 331.718 135.654V152.981Z" fill="white"/>
<path d="M412.614 184.71C412.614 190.538 417.338 195.262 423.166 195.262H426C433.732 195.262 440 201.53 440 209.262V291.981C440 299.713 433.732 305.981 426 305.981H422.646C416.711 305.981 411.899 310.793 411.899 316.728V326.475C411.899 327.027 411.452 327.475 410.899 327.475C410.347 327.475 409.899 327.027 409.899 326.475V316.728C409.899 310.793 405.088 305.981 399.152 305.981H397.564C389.833 305.981 383.564 299.713 383.564 291.981V209.262C383.564 201.53 389.833 195.262 397.564 195.262H400.063C405.89 195.262 410.614 190.538 410.614 184.71V175.159C410.614 174.606 411.062 174.159 411.614 174.159C412.167 174.159 412.614 174.606 412.614 175.159V184.71Z" fill="white"/>
<path d="M252.337 81.1377C252.337 87.6977 257.655 93.0156 264.215 93.0156C271.947 93.0156 278.215 99.2836 278.215 107.016V391.293C278.215 399.025 271.947 405.293 264.215 405.293C256.812 405.293 250.812 411.294 250.812 418.696V448.752C250.812 449.304 250.364 449.752 249.812 449.752C249.259 449.752 248.812 449.304 248.812 448.752V418.325C248.812 411.128 242.977 405.293 235.779 405.293C228.047 405.293 221.779 399.025 221.779 391.293V107.016C221.779 99.2837 228.047 93.0157 235.779 93.0156C243.819 93.0156 250.337 86.498 250.337 78.458V51C250.337 50.4477 250.785 50 251.337 50C251.889 50 252.337 50.4477 252.337 51V81.1377Z" fill="url(#paint0_linear_200_450)"/>
<defs>
<linearGradient id="paint0_linear_200_450" x1="249.997" y1="50" x2="249.997" y2="449.752" gradientUnits="userSpaceOnUse">
<stop stop-color="white"/>
<stop offset="1" stop-color="#BA4E1F"/>
</linearGradient>
</defs>
</svg>
