<svg width="500" height="500" viewBox="0 0 500 500" fill="none" xmlns="http://www.w3.org/2000/svg">
<path d="M164.892 118.001C173.823 118.001 182.076 122.766 186.542 130.501L260.904 259.301C270.527 275.967 294.583 275.967 304.205 259.301L378.606 130.434C383.048 122.741 391.257 118.001 400.14 118.001C419.28 118.001 431.243 138.722 421.673 155.298L313.643 342.411C309.177 350.146 300.924 354.911 291.992 354.911H273.117C264.186 354.911 255.933 350.146 251.467 342.411L193.871 242.653C182.176 222.397 151.552 227.861 147.583 250.911L128.439 362.091C126.374 374.085 115.972 382.849 103.802 382.849H99.0068C83.504 382.849 71.7385 368.884 74.3691 353.606L113.948 123.748C114.447 120.852 116.619 118.663 119.301 118.001H164.892ZM279.962 118.001C300.02 118.001 316.28 134.262 316.28 154.32C316.28 174.379 300.02 190.639 279.962 190.639C259.904 190.639 243.644 174.378 243.644 154.32C243.644 134.262 259.904 118.001 279.962 118.001Z" fill="white"/>
</svg>
